<?xml version="1.0" standalone="no"?>
<!DOCTYPE svg PUBLIC "-//W3C//DTD SVG 20010904//EN"
 "http://www.w3.org/TR/2001/REC-SVG-20010904/DTD/svg10.dtd">
<svg version="1.0" xmlns="http://www.w3.org/2000/svg"
 width="300.000000pt" height="300.000000pt" viewBox="0 0 300.000000 300.000000"
 preserveAspectRatio="xMidYMid meet">
<metadata>
Created by potrace 1.14, written by Peter Selinger 2001-2017
</metadata>
<g transform="translate(0.000000,300.000000) scale(0.100000,-0.100000)"
fill="#000000" stroke="none">
<path d="M1378 2165 c-2 -2 -32 -6 -68 -10 -178 -18 -363 -86 -456 -168 -98
-86 -137 -176 -141 -324 -3 -123 9 -168 84 -317 195 -389 411 -615 613 -643
l55 -8 3 -71 3 -71 -46 -27 c-44 -24 -49 -25 -75 -11 -37 19 -103 19 -140 0
-59 -31 -102 -121 -94 -199 3 -36 29 -96 46 -107 6 -4 5 -15 -2 -29 -16 -29
-24 -73 -24 -130 l-1 -45 63 -3 c59 -3 62 -2 63 20 1 40 9 72 20 83 8 7 10 -6
7 -47 l-5 -58 343 0 c371 0 352 -3 348 57 -3 49 14 40 22 -12 l6 -45 69 0 c59
0 69 3 70 18 3 45 -9 97 -36 148 l-25 49 24 49 c53 110 4 253 -100 290 -49 17
-115 13 -153 -10 -27 -16 -31 -16 -64 -1 -20 10 -49 20 -66 23 -17 4 -31 12
-32 18 0 6 -2 18 -4 26 -15 70 -22 147 -14 153 2 2 36 26 74 54 84 61 235 217
235 242 0 5 4 11 8 13 8 3 72 95 72 104 0 2 11 21 24 42 32 52 91 205 108 282
30 135 18 276 -34 387 -12 26 -49 75 -83 108 -87 87 -190 132 -360 161 -40 7
-331 14 -337 9z"/>
</g>
</svg>
